{
	"patcher" : 	{
		"fileversion" : 1,
		"appversion" : 		{
			"major" : 8,
			"minor" : 5,
			"revision" : 6,
			"architecture" : "x64",
			"modernui" : 1
		}
,
		"classnamespace" : "box",
		"rect" : [ 117.0, 179.0, 1149.0, 829.0 ],
		"bglocked" : 0,
		"openinpresentation" : 0,
		"default_fontsize" : 12.0,
		"default_fontface" : 0,
		"default_fontname" : "Arial",
		"gridonopen" : 1,
		"gridsize" : [ 15.0, 15.0 ],
		"gridsnaponopen" : 1,
		"objectsnaponopen" : 1,
		"statusbarvisible" : 2,
		"toolbarvisible" : 1,
		"lefttoolbarpinned" : 0,
		"toptoolbarpinned" : 0,
		"righttoolbarpinned" : 0,
		"bottomtoolbarpinned" : 0,
		"toolbars_unpinned_last_save" : 0,
		"tallnewobj" : 0,
		"boxanimatetime" : 200,
		"enablehscroll" : 1,
		"enablevscroll" : 1,
		"devicewidth" : 0.0,
		"description" : "",
		"digest" : "",
		"tags" : "",
		"style" : "",
		"subpatcher_template" : "",
		"assistshowspatchername" : 0,
		"boxes" : [ 			{
				"box" : 				{
					"id" : "obj-20",
					"maxclass" : "number",
					"numinlets" : 1,
					"numoutlets" : 2,
					"outlettype" : [ "", "bang" ],
					"parameter_enable" : 0,
					"patching_rect" : [ 461.0, 48.0, 50.0, 22.0 ]
				}

			}
, 			{
				"box" : 				{
					"id" : "obj-13",
					"maxclass" : "number",
					"numinlets" : 1,
					"numoutlets" : 2,
					"outlettype" : [ "", "bang" ],
					"parameter_enable" : 0,
					"patching_rect" : [ 167.0, 115.0, 50.0, 22.0 ]
				}

			}
, 			{
				"box" : 				{
					"id" : "obj-10",
					"maxclass" : "newobj",
					"numinlets" : 2,
					"numoutlets" : 1,
					"outlettype" : [ "int" ],
					"patching_rect" : [ 417.0, 139.0, 66.0, 22.0 ],
					"text" : "random 10"
				}

			}
, 			{
				"box" : 				{
					"id" : "obj-9",
					"maxclass" : "button",
					"numinlets" : 1,
					"numoutlets" : 1,
					"outlettype" : [ "bang" ],
					"parameter_enable" : 0,
					"patching_rect" : [ 417.0, 106.879624680456345, 24.0, 24.0 ]
				}

			}
, 			{
				"box" : 				{
					"id" : "obj-7",
					"maxclass" : "newobj",
					"numinlets" : 2,
					"numoutlets" : 1,
					"outlettype" : [ "bang" ],
					"patching_rect" : [ 417.0, 80.0, 63.0, 22.0 ],
					"text" : "metro 200"
				}

			}
, 			{
				"box" : 				{
					"id" : "obj-6",
					"maxclass" : "toggle",
					"numinlets" : 1,
					"numoutlets" : 1,
					"outlettype" : [ "int" ],
					"parameter_enable" : 0,
					"patching_rect" : [ 417.0, 47.0, 24.0, 24.0 ]
				}

			}
, 			{
				"box" : 				{
					"basictuning" : 440,
					"clipheight" : 26.199999999999999,
					"data" : 					{
						"clips" : [ 							{
								"absolutepath" : "Macintosh HD:/Users/jifferharriman/Documents/code/Max/github/MaxIntro/sounds/choke.wav",
								"filename" : "choke.wav",
								"filekind" : "audiofile",
								"id" : "u960005918",
								"loop" : 0,
								"content_state" : 								{

								}

							}
, 							{
								"absolutepath" : "Macintosh HD:/Users/jifferharriman/Documents/code/Max/github/MaxIntro/sounds/clap.wav",
								"filename" : "clap.wav",
								"filekind" : "audiofile",
								"id" : "u634005921",
								"loop" : 0,
								"content_state" : 								{

								}

							}
, 							{
								"absolutepath" : "Macintosh HD:/Users/jifferharriman/Documents/code/Max/github/MaxIntro/sounds/cluck.wav",
								"filename" : "cluck.wav",
								"filekind" : "audiofile",
								"id" : "u974005924",
								"loop" : 0,
								"content_state" : 								{

								}

							}
, 							{
								"absolutepath" : "Macintosh HD:/Users/jifferharriman/Documents/code/Max/github/MaxIntro/sounds/huuuh.wav",
								"filename" : "huuuh.wav",
								"filekind" : "audiofile",
								"id" : "u350005927",
								"loop" : 0,
								"content_state" : 								{

								}

							}
, 							{
								"absolutepath" : "Macintosh HD:/Users/jifferharriman/Documents/code/Max/github/MaxIntro/sounds/pop.wav",
								"filename" : "pop.wav",
								"filekind" : "audiofile",
								"id" : "u796005930",
								"loop" : 0,
								"content_state" : 								{

								}

							}
, 							{
								"absolutepath" : "Macintosh HD:/Users/jifferharriman/Documents/code/Max/github/MaxIntro/sounds/popp.wav",
								"filename" : "popp.wav",
								"filekind" : "audiofile",
								"id" : "u001005933",
								"loop" : 0,
								"content_state" : 								{

								}

							}
, 							{
								"absolutepath" : "Macintosh HD:/Users/jifferharriman/Documents/code/Max/github/MaxIntro/sounds/snap.wav",
								"filename" : "snap.wav",
								"filekind" : "audiofile",
								"id" : "u561005936",
								"loop" : 0,
								"content_state" : 								{

								}

							}
, 							{
								"absolutepath" : "Macintosh HD:/Users/jifferharriman/Documents/code/Max/github/MaxIntro/sounds/sssssss.wav",
								"filename" : "sssssss.wav",
								"filekind" : "audiofile",
								"id" : "u051005939",
								"loop" : 0,
								"content_state" : 								{

								}

							}
, 							{
								"absolutepath" : "Macintosh HD:/Users/jifferharriman/Documents/code/Max/github/MaxIntro/sounds/ssst.wav",
								"filename" : "ssst.wav",
								"filekind" : "audiofile",
								"id" : "u842005942",
								"loop" : 0,
								"content_state" : 								{

								}

							}
, 							{
								"absolutepath" : "Macintosh HD:/Users/jifferharriman/Documents/code/Max/github/MaxIntro/sounds/uuunn.wav",
								"filename" : "uuunn.wav",
								"filekind" : "audiofile",
								"id" : "u413005945",
								"loop" : 0,
								"content_state" : 								{

								}

							}
 ]
					}
,
					"followglobaltempo" : 0,
					"formantcorrection" : 0,
					"id" : "obj-4",
					"maxclass" : "playlist~",
					"mode" : "basic",
					"numinlets" : 1,
					"numoutlets" : 5,
					"originallength" : [ 0.0, "ticks" ],
					"originaltempo" : 120.0,
					"outlettype" : [ "signal", "signal", "signal", "", "dictionary" ],
					"parameter_enable" : 0,
					"patching_rect" : [ 141.0, 230.0, 312.0, 272.0 ],
					"pitchcorrection" : 0,
					"quality" : "basic",
					"timestretch" : [ 0 ]
				}

			}
, 			{
				"box" : 				{
					"id" : "obj-36",
					"maxclass" : "comment",
					"numinlets" : 1,
					"numoutlets" : 0,
					"patching_rect" : [ 142.5, 47.0, 188.0, 20.0 ],
					"text" : "1-5 keys trigger sounds below"
				}

			}
, 			{
				"box" : 				{
					"id" : "obj-34",
					"maxclass" : "number",
					"numinlets" : 1,
					"numoutlets" : 2,
					"outlettype" : [ "", "bang" ],
					"parameter_enable" : 0,
					"patching_rect" : [ 142.5, 193.0, 50.0, 22.0 ]
				}

			}
, 			{
				"box" : 				{
					"id" : "obj-32",
					"maxclass" : "newobj",
					"numinlets" : 2,
					"numoutlets" : 1,
					"outlettype" : [ "int" ],
					"patching_rect" : [ 142.5, 151.0, 29.5, 22.0 ],
					"text" : "- 48"
				}

			}
, 			{
				"box" : 				{
					"id" : "obj-31",
					"maxclass" : "newobj",
					"numinlets" : 0,
					"numoutlets" : 4,
					"outlettype" : [ "int", "int", "int", "int" ],
					"patching_rect" : [ 142.5, 79.0, 50.5, 22.0 ],
					"text" : "key"
				}

			}
, 			{
				"box" : 				{
					"id" : "obj-30",
					"maxclass" : "ezdac~",
					"numinlets" : 2,
					"numoutlets" : 0,
					"patching_rect" : [ 142.5, 700.879624680456345, 45.0, 45.0 ]
				}

			}
, 			{
				"box" : 				{
					"id" : "obj-29",
					"maxclass" : "gain~",
					"multichannelvariant" : 0,
					"numinlets" : 1,
					"numoutlets" : 2,
					"outlettype" : [ "signal", "" ],
					"parameter_enable" : 0,
					"patching_rect" : [ 142.5, 557.0, 22.0, 140.0 ]
				}

			}
, 			{
				"box" : 				{
					"id" : "obj-12",
					"linecount" : 2,
					"maxclass" : "comment",
					"numinlets" : 1,
					"numoutlets" : 0,
					"patching_rect" : [ 790.5, 413.0, 150.0, 33.0 ],
					"text" : "defaults to 100 velocity, duration of 500ms"
				}

			}
, 			{
				"box" : 				{
					"id" : "obj-14",
					"maxclass" : "comment",
					"numinlets" : 1,
					"numoutlets" : 0,
					"patching_rect" : [ 775.5, 352.0, 97.0, 20.0 ],
					"text" : "note on duration"
				}

			}
, 			{
				"box" : 				{
					"id" : "obj-15",
					"maxclass" : "comment",
					"numinlets" : 1,
					"numoutlets" : 0,
					"patching_rect" : [ 713.5, 327.0, 80.0, 20.0 ],
					"text" : "midi velocity"
				}

			}
, 			{
				"box" : 				{
					"id" : "obj-16",
					"maxclass" : "comment",
					"numinlets" : 1,
					"numoutlets" : 0,
					"patching_rect" : [ 660.5, 297.0, 103.0, 20.0 ],
					"text" : "midi note number"
				}

			}
, 			{
				"box" : 				{
					"id" : "obj-18",
					"maxclass" : "number",
					"numinlets" : 1,
					"numoutlets" : 2,
					"outlettype" : [ "", "bang" ],
					"parameter_enable" : 0,
					"patching_rect" : [ 713.5, 374.0, 50.0, 22.0 ]
				}

			}
, 			{
				"box" : 				{
					"id" : "obj-19",
					"maxclass" : "number",
					"numinlets" : 1,
					"numoutlets" : 2,
					"outlettype" : [ "", "bang" ],
					"parameter_enable" : 0,
					"patching_rect" : [ 775.5, 374.0, 50.0, 22.0 ]
				}

			}
, 			{
				"box" : 				{
					"id" : "obj-21",
					"maxclass" : "newobj",
					"numinlets" : 3,
					"numoutlets" : 0,
					"patching_rect" : [ 670.5, 500.0, 49.0, 22.0 ],
					"text" : "noteout"
				}

			}
, 			{
				"box" : 				{
					"id" : "obj-22",
					"maxclass" : "number",
					"numinlets" : 1,
					"numoutlets" : 2,
					"outlettype" : [ "", "bang" ],
					"parameter_enable" : 0,
					"patching_rect" : [ 759.5, 454.0, 50.0, 22.0 ]
				}

			}
, 			{
				"box" : 				{
					"id" : "obj-23",
					"maxclass" : "number",
					"numinlets" : 1,
					"numoutlets" : 2,
					"outlettype" : [ "", "bang" ],
					"parameter_enable" : 0,
					"patching_rect" : [ 670.5, 458.0, 50.0, 22.0 ]
				}

			}
, 			{
				"box" : 				{
					"id" : "obj-24",
					"maxclass" : "newobj",
					"numinlets" : 3,
					"numoutlets" : 2,
					"outlettype" : [ "float", "float" ],
					"patching_rect" : [ 670.5, 413.0, 108.0, 22.0 ],
					"text" : "makenote 100 500"
				}

			}
, 			{
				"box" : 				{
					"id" : "obj-25",
					"maxclass" : "number",
					"numinlets" : 1,
					"numoutlets" : 2,
					"outlettype" : [ "", "bang" ],
					"parameter_enable" : 0,
					"patching_rect" : [ 651.5, 374.0, 50.0, 22.0 ]
				}

			}
, 			{
				"box" : 				{
					"id" : "obj-26",
					"maxclass" : "kslider",
					"numinlets" : 2,
					"numoutlets" : 2,
					"outlettype" : [ "int", "int" ],
					"parameter_enable" : 0,
					"patching_rect" : [ 651.5, 230.0, 336.0, 53.0 ],
					"varname" : "vz.midictrlr"
				}

			}
 ],
		"lines" : [ 			{
				"patchline" : 				{
					"destination" : [ "obj-34", 0 ],
					"source" : [ "obj-10", 0 ]
				}

			}
, 			{
				"patchline" : 				{
					"destination" : [ "obj-24", 1 ],
					"source" : [ "obj-18", 0 ]
				}

			}
, 			{
				"patchline" : 				{
					"destination" : [ "obj-24", 2 ],
					"source" : [ "obj-19", 0 ]
				}

			}
, 			{
				"patchline" : 				{
					"destination" : [ "obj-7", 1 ],
					"source" : [ "obj-20", 0 ]
				}

			}
, 			{
				"patchline" : 				{
					"destination" : [ "obj-21", 1 ],
					"source" : [ "obj-22", 0 ]
				}

			}
, 			{
				"patchline" : 				{
					"destination" : [ "obj-21", 0 ],
					"source" : [ "obj-23", 0 ]
				}

			}
, 			{
				"patchline" : 				{
					"destination" : [ "obj-22", 0 ],
					"source" : [ "obj-24", 1 ]
				}

			}
, 			{
				"patchline" : 				{
					"destination" : [ "obj-23", 0 ],
					"source" : [ "obj-24", 0 ]
				}

			}
, 			{
				"patchline" : 				{
					"destination" : [ "obj-24", 0 ],
					"source" : [ "obj-25", 0 ]
				}

			}
, 			{
				"patchline" : 				{
					"destination" : [ "obj-25", 0 ],
					"source" : [ "obj-26", 0 ]
				}

			}
, 			{
				"patchline" : 				{
					"destination" : [ "obj-30", 1 ],
					"order" : 0,
					"source" : [ "obj-29", 0 ]
				}

			}
, 			{
				"patchline" : 				{
					"destination" : [ "obj-30", 0 ],
					"order" : 1,
					"source" : [ "obj-29", 0 ]
				}

			}
, 			{
				"patchline" : 				{
					"destination" : [ "obj-13", 0 ],
					"order" : 0,
					"source" : [ "obj-31", 0 ]
				}

			}
, 			{
				"patchline" : 				{
					"destination" : [ "obj-32", 0 ],
					"order" : 1,
					"source" : [ "obj-31", 0 ]
				}

			}
, 			{
				"patchline" : 				{
					"destination" : [ "obj-34", 0 ],
					"source" : [ "obj-32", 0 ]
				}

			}
, 			{
				"patchline" : 				{
					"destination" : [ "obj-4", 0 ],
					"source" : [ "obj-34", 0 ]
				}

			}
, 			{
				"patchline" : 				{
					"destination" : [ "obj-29", 0 ],
					"source" : [ "obj-4", 0 ]
				}

			}
, 			{
				"patchline" : 				{
					"destination" : [ "obj-7", 0 ],
					"source" : [ "obj-6", 0 ]
				}

			}
, 			{
				"patchline" : 				{
					"destination" : [ "obj-9", 0 ],
					"source" : [ "obj-7", 0 ]
				}

			}
, 			{
				"patchline" : 				{
					"destination" : [ "obj-10", 0 ],
					"source" : [ "obj-9", 0 ]
				}

			}
 ],
		"dependency_cache" : [ 			{
				"name" : "choke.wav",
				"bootpath" : "~/Documents/code/Max/github/MaxIntro/sounds",
				"patcherrelativepath" : "./sounds",
				"type" : "WAVE",
				"implicit" : 1
			}
, 			{
				"name" : "clap.wav",
				"bootpath" : "~/Documents/code/Max/github/MaxIntro/sounds",
				"patcherrelativepath" : "./sounds",
				"type" : "WAVE",
				"implicit" : 1
			}
, 			{
				"name" : "cluck.wav",
				"bootpath" : "~/Documents/code/Max/github/MaxIntro/sounds",
				"patcherrelativepath" : "./sounds",
				"type" : "WAVE",
				"implicit" : 1
			}
, 			{
				"name" : "huuuh.wav",
				"bootpath" : "~/Documents/code/Max/github/MaxIntro/sounds",
				"patcherrelativepath" : "./sounds",
				"type" : "WAVE",
				"implicit" : 1
			}
, 			{
				"name" : "pop.wav",
				"bootpath" : "~/Documents/code/Max/github/MaxIntro/sounds",
				"patcherrelativepath" : "./sounds",
				"type" : "WAVE",
				"implicit" : 1
			}
, 			{
				"name" : "popp.wav",
				"bootpath" : "~/Documents/code/Max/github/MaxIntro/sounds",
				"patcherrelativepath" : "./sounds",
				"type" : "WAVE",
				"implicit" : 1
			}
, 			{
				"name" : "snap.wav",
				"bootpath" : "~/Documents/code/Max/github/MaxIntro/sounds",
				"patcherrelativepath" : "./sounds",
				"type" : "WAVE",
				"implicit" : 1
			}
, 			{
				"name" : "sssssss.wav",
				"bootpath" : "~/Documents/code/Max/github/MaxIntro/sounds",
				"patcherrelativepath" : "./sounds",
				"type" : "WAVE",
				"implicit" : 1
			}
, 			{
				"name" : "ssst.wav",
				"bootpath" : "~/Documents/code/Max/github/MaxIntro/sounds",
				"patcherrelativepath" : "./sounds",
				"type" : "WAVE",
				"implicit" : 1
			}
, 			{
				"name" : "uuunn.wav",
				"bootpath" : "~/Documents/code/Max/github/MaxIntro/sounds",
				"patcherrelativepath" : "./sounds",
				"type" : "WAVE",
				"implicit" : 1
			}
 ],
		"autosave" : 0
	}

}
